<svg aria-hidden="true" style="position: absolute; width: 0; height: 0; overflow: hidden;" version="1.1" xmlns="http://www.w3.org/2000/svg" xmlns:xlink="http://www.w3.org/1999/xlink">
<defs>
<symbol id="arrow-left" viewBox="0 0 18 32">
<path d="M17.61 28.107l-12.096-12.096 12.119-12.119c0.267-0.373 0.427-0.838 0.427-1.34 0-1.28-1.037-2.317-2.317-2.317-0.508 0-0.979 0.164-1.361 0.441l0.007-0.005-13.694 13.694c-0.403 0.416-0.651 0.984-0.651 1.61s0.248 1.194 0.652 1.611l-0.001-0.001 13.718 13.741c0.373 0.267 0.838 0.427 1.34 0.427 1.28 0 2.317-1.037 2.317-2.317 0-0.508-0.164-0.979-0.441-1.361l0.005 0.007z"></path>
</symbol>
<symbol id="arrow-right" viewBox="0 0 18 32">
<path d="M0.672 3.893l12.096 12.119-12.096 12.096c-0.273 0.375-0.437 0.846-0.437 1.354 0 1.28 1.037 2.317 2.317 2.317 0.503 0 0.968-0.16 1.347-0.432l-0.007 0.005 13.718-13.718c0.403-0.416 0.651-0.984 0.651-1.61s-0.248-1.194-0.652-1.611l0.001 0.001-13.718-13.741c-0.416-0.403-0.984-0.651-1.61-0.651s-1.194 0.248-1.611 0.652l0.001-0.001c-0.403 0.416-0.651 0.984-0.651 1.61s0.248 1.194 0.652 1.611l-0.001-0.001z"></path>
</symbol>
</defs>
</svg>
